STARTFONT 2.1
FONT -Monotype-Rockwell-Bold-I-Normal--12-120-72-72-P-63-ISO8859-1
SIZE 12 72 72
FONTBOUNDINGBOX 19 16 -5 -3

STARTPROPERTIES 22
FOUNDRY "Monotype"
FAMILY_NAME "Rockwell"
WEIGHT_NAME "Bold"
SLANT "I"
SETWIDTH_NAME "Normal"
ADD_STYLE_NAME ""
PIXEL_SIZE 12
POINT_SIZE 120
RESOLUTION_X 72
RESOLUTION_Y 72
SPACING "P"
AVERAGE_WIDTH 63
CHARSET_REGISTRY "ISO8859"
CHARSET_ENCODING "1"
FULL_NAME "Rockwell-BoldItalic"
COPYRIGHT "Copyright (c) 1991 The Monotype Corporation plc."
WEIGHT 10
X_HEIGHT 6
QUAD_WIDTH 7
DEFAULT_CHAR 32
FONT_DESCENT 3
FONT_ASCENT 11
ENDPROPERTIES

CHARS 190

STARTCHAR space
ENCODING 32
SWIDTH 250 0
DWIDTH 3 0
BBX 1 1 0 0
BITMAP
00
ENDCHAR

STARTCHAR exclam
ENCODING 33
SWIDTH 333 0
DWIDTH 4 0
BBX 4 9 1 0
BITMAP
30
20
20
60
40
40
00
C0
C0
ENDCHAR

STARTCHAR quotedbl
ENCODING 34
SWIDTH 552 0
DWIDTH 7 0
BBX 5 4 2 5
BITMAP
D8
D0
90
90
ENDCHAR

STARTCHAR numbersign
ENCODING 35
SWIDTH 668 0
DWIDTH 8 0
BBX 7 9 1 0
BITMAP
26
24
24
FE
64
6C
FE
48
48
ENDCHAR

STARTCHAR dollar
ENCODING 36
SWIDTH 500 0
DWIDTH 6 0
BBX 6 10 0 -1
BITMAP
38
74
70
70
38
38
28
A8
F0
40
ENDCHAR

STARTCHAR percent
ENCODING 37
SWIDTH 927 0
DWIDTH 11 0
BBX 9 9 1 0
BITMAP
7180
D100
B200
E400
0800
1380
2680
6780
C300
ENDCHAR

STARTCHAR ampersand
ENCODING 38
SWIDTH 740 0
DWIDTH 9 0
BBX 9 9 1 0
BITMAP
1C00
3400
3400
1800
7B80
CA00
CE00
CE00
7B00
ENDCHAR

STARTCHAR quoteright
ENCODING 39
SWIDTH 333 0
DWIDTH 4 0
BBX 3 4 2 5
BITMAP
60
C0
40
80
ENDCHAR

STARTCHAR parenleft
ENCODING 40
SWIDTH 344 0
DWIDTH 4 0
BBX 5 12 1 -3
BITMAP
18
30
20
60
40
C0
C0
C0
C0
C0
40
40
ENDCHAR

STARTCHAR parenright
ENCODING 41
SWIDTH 344 0
DWIDTH 4 0
BBX 5 12 0 -3
BITMAP
20
10
10
18
18
18
10
30
30
60
40
80
ENDCHAR

STARTCHAR asterisk
ENCODING 42
SWIDTH 563 0
DWIDTH 7 0
BBX 6 6 1 2
BITMAP
10
D0
7C
F0
50
18
ENDCHAR

STARTCHAR plus
ENCODING 43
SWIDTH 668 0
DWIDTH 8 0
BBX 7 7 0 1
BITMAP
10
10
10
FE
10
10
10
ENDCHAR

STARTCHAR comma
ENCODING 44
SWIDTH 333 0
DWIDTH 4 0
BBX 3 4 0 -2
BITMAP
60
C0
40
80
ENDCHAR

STARTCHAR minus
ENCODING 45
SWIDTH 668 0
DWIDTH 8 0
BBX 7 1 1 3
BITMAP
FE
ENDCHAR

STARTCHAR period
ENCODING 46
SWIDTH 333 0
DWIDTH 4 0
BBX 2 2 1 0
BITMAP
C0
C0
ENDCHAR

STARTCHAR slash
ENCODING 47
SWIDTH 508 0
DWIDTH 5 0
BBX 7 12 0 -3
BITMAP
06
04
08
08
18
10
10
20
20
40
40
80
ENDCHAR

STARTCHAR zero
ENCODING 48
SWIDTH 542 0
DWIDTH 7 0
BBX 6 9 1 0
BITMAP
38
68
4C
CC
C8
C8
D8
D0
60
ENDCHAR

STARTCHAR one
ENCODING 49
SWIDTH 542 0
DWIDTH 7 0
BBX 5 9 1 0
BITMAP
38
10
30
30
30
20
20
60
F0
ENDCHAR

STARTCHAR two
ENCODING 50
SWIDTH 542 0
DWIDTH 7 0
BBX 6 9 1 0
BITMAP
38
2C
4C
08
10
20
40
C8
F8
ENDCHAR

STARTCHAR three
ENCODING 51
SWIDTH 542 0
DWIDTH 7 0
BBX 6 9 1 0
BITMAP
38
6C
0C
08
38
18
18
D8
70
ENDCHAR

STARTCHAR four
ENCODING 52
SWIDTH 542 0
DWIDTH 7 0
BBX 6 9 1 0
BITMAP
08
18
38
78
58
90
FC
30
78
ENDCHAR

STARTCHAR five
ENCODING 53
SWIDTH 542 0
DWIDTH 7 0
BBX 6 9 1 0
BITMAP
3C
24
40
78
18
08
18
D8
F0
ENDCHAR

STARTCHAR six
ENCODING 54
SWIDTH 542 0
DWIDTH 7 0
BBX 6 9 1 0
BITMAP
38
6C
60
40
F0
D8
D8
D8
70
ENDCHAR

STARTCHAR seven
ENCODING 55
SWIDTH 542 0
DWIDTH 7 0
BBX 6 9 1 0
BITMAP
7C
44
08
18
10
30
20
60
F0
ENDCHAR

STARTCHAR eight
ENCODING 56
SWIDTH 542 0
DWIDTH 7 0
BBX 6 9 1 0
BITMAP
38
6C
6C
6C
70
C8
D8
D8
70
ENDCHAR

STARTCHAR nine
ENCODING 57
SWIDTH 542 0
DWIDTH 7 0
BBX 6 9 1 0
BITMAP
38
6C
4C
4C
6C
38
08
90
60
ENDCHAR

STARTCHAR colon
ENCODING 58
SWIDTH 333 0
DWIDTH 4 0
BBX 3 6 1 0
BITMAP
60
60
00
00
C0
C0
ENDCHAR

STARTCHAR semicolon
ENCODING 59
SWIDTH 333 0
DWIDTH 4 0
BBX 4 8 0 -2
BITMAP
30
60
00
00
60
C0
40
80
ENDCHAR

STARTCHAR less
ENCODING 60
SWIDTH 667 0
DWIDTH 8 0
BBX 7 7 1 0
BITMAP
02
0E
70
C0
70
1E
02
ENDCHAR

STARTCHAR equal
ENCODING 61
SWIDTH 667 0
DWIDTH 8 0
BBX 7 4 1 2
BITMAP
FE
00
00
FE
ENDCHAR

STARTCHAR greater
ENCODING 62
SWIDTH 667 0
DWIDTH 8 0
BBX 7 7 1 0
BITMAP
80
E0
3C
06
38
E0
80
ENDCHAR

STARTCHAR question
ENCODING 63
SWIDTH 542 0
DWIDTH 7 0
BBX 6 9 1 0
BITMAP
78
C8
0C
18
38
20
00
60
40
ENDCHAR

STARTCHAR at
ENCODING 64
SWIDTH 979 0
DWIDTH 12 0
BBX 11 12 0 -3
BITMAP
1F00
30C0
4FE0
5B20
B120
B120
B360
B340
9FA0
4060
30C0
1F00
ENDCHAR

STARTCHAR A
ENCODING 65
SWIDTH 646 0
DWIDTH 8 0
BBX 8 9 0 0
BITMAP
1F
0A
0A
12
12
1E
23
23
E7
ENDCHAR

STARTCHAR B
ENCODING 66
SWIDTH 667 0
DWIDTH 8 0
BBX 8 9 0 0
BITMAP
3E
33
33
33
3C
36
66
66
FC
ENDCHAR

STARTCHAR C
ENCODING 67
SWIDTH 771 0
DWIDTH 9 0
BBX 9 9 1 0
BITMAP
1E80
3180
6000
C000
C000
C000
C000
6300
3E00
ENDCHAR

STARTCHAR D
ENCODING 68
SWIDTH 760 0
DWIDTH 9 0
BBX 9 9 0 0
BITMAP
3E00
1B80
3180
3180
3180
3180
3380
6300
FE00
ENDCHAR

STARTCHAR E
ENCODING 69
SWIDTH 635 0
DWIDTH 8 0
BBX 9 9 0 0
BITMAP
3F80
3100
3000
3000
3C00
3000
6000
6200
FE00
ENDCHAR

STARTCHAR F
ENCODING 70
SWIDTH 583 0
DWIDTH 7 0
BBX 9 9 0 0
BITMAP
7F80
1900
3000
3C00
3000
3000
3000
7000
F800
ENDCHAR

STARTCHAR G
ENCODING 71
SWIDTH 813 0
DWIDTH 10 0
BBX 9 9 1 0
BITMAP
1E80
3180
6000
E000
C000
C780
C300
6700
3C00
ENDCHAR

STARTCHAR H
ENCODING 72
SWIDTH 740 0
DWIDTH 9 0
BBX 9 9 0 0
BITMAP
3B80
3180
3300
3300
3F00
6300
6300
6600
FF00
ENDCHAR

STARTCHAR I
ENCODING 73
SWIDTH 396 0
DWIDTH 5 0
BBX 6 9 0 0
BITMAP
7C
18
30
30
30
30
30
60
F8
ENDCHAR

STARTCHAR J
ENCODING 74
SWIDTH 375 0
DWIDTH 5 0
BBX 7 12 0 -3
BITMAP
1E
0C
0C
0C
18
18
18
18
18
30
30
E0
ENDCHAR

STARTCHAR K
ENCODING 75
SWIDTH 708 0
DWIDTH 8 0
BBX 10 9 0 0
BITMAP
3FC0
3100
3200
3400
3C00
3600
6600
6300
F780
ENDCHAR

STARTCHAR L
ENCODING 76
SWIDTH 604 0
DWIDTH 7 0
BBX 7 9 0 0
BITMAP
7C
30
30
30
30
32
62
62
FE
ENDCHAR

STARTCHAR M
ENCODING 77
SWIDTH 1021 0
DWIDTH 12 0
BBX 13 9 0 0
BITMAP
3C78
2CF0
2CB0
2DB0
2D60
2F60
2660
4460
E4F0
ENDCHAR

STARTCHAR N
ENCODING 78
SWIDTH 792 0
DWIDTH 10 0
BBX 10 9 0 0
BITMAP
39C0
2880
2C80
2C80
2500
2700
2700
4700
E300
ENDCHAR

STARTCHAR O
ENCODING 79
SWIDTH 823 0
DWIDTH 10 0
BBX 9 9 1 0
BITMAP
1E00
3300
6180
E180
C180
C380
C300
6600
3C00
ENDCHAR

STARTCHAR P
ENCODING 80
SWIDTH 646 0
DWIDTH 8 0
BBX 8 9 0 0
BITMAP
7E
33
33
33
33
3E
60
60
F0
ENDCHAR

STARTCHAR Q
ENCODING 81
SWIDTH 823 0
DWIDTH 10 0
BBX 9 11 1 -2
BITMAP
1E00
3300
6180
E180
C180
C300
C300
6600
7800
7000
0C00
ENDCHAR

STARTCHAR R
ENCODING 82
SWIDTH 698 0
DWIDTH 8 0
BBX 8 9 0 0
BITMAP
3F
33
33
33
3F
36
66
66
F3
ENDCHAR

STARTCHAR S
ENCODING 83
SWIDTH 510 0
DWIDTH 6 0
BBX 7 9 0 0
BITMAP
3E
24
60
30
18
1C
0C
C8
B8
ENDCHAR

STARTCHAR T
ENCODING 84
SWIDTH 688 0
DWIDTH 8 0
BBX 8 9 1 0
BITMAP
7F
9A
18
18
30
30
30
30
F8
ENDCHAR

STARTCHAR U
ENCODING 85
SWIDTH 708 0
DWIDTH 8 0
BBX 8 9 1 0
BITMAP
F7
62
62
E4
C4
C4
C4
C8
70
ENDCHAR

STARTCHAR V
ENCODING 86
SWIDTH 646 0
DWIDTH 8 0
BBX 8 9 1 0
BITMAP
F7
62
64
64
68
68
70
70
20
ENDCHAR

STARTCHAR W
ENCODING 87
SWIDTH 896 0
DWIDTH 11 0
BBX 12 9 1 0
BITMAP
FFF0
6440
6EC0
6E80
7F80
7700
7700
6600
6600
ENDCHAR

STARTCHAR X
ENCODING 88
SWIDTH 677 0
DWIDTH 8 0
BBX 10 9 0 0
BITMAP
3BC0
1900
1A00
0E00
0C00
1C00
3600
2600
F700
ENDCHAR

STARTCHAR Y
ENCODING 89
SWIDTH 625 0
DWIDTH 8 0
BBX 8 9 1 0
BITMAP
F7
66
64
28
38
30
30
30
78
ENDCHAR

STARTCHAR Z
ENCODING 90
SWIDTH 604 0
DWIDTH 7 0
BBX 8 9 0 0
BITMAP
3F
27
0E
0C
18
38
70
E6
FC
ENDCHAR

STARTCHAR bracketleft
ENCODING 91
SWIDTH 385 0
DWIDTH 5 0
BBX 6 12 0 -3
BITMAP
3C
30
30
20
20
60
60
60
40
40
C0
E0
ENDCHAR

STARTCHAR backslash
ENCODING 92
SWIDTH 508 0
DWIDTH 8 0
BBX 3 9 3 0
BITMAP
C0
C0
C0
C0
40
40
60
60
60
ENDCHAR

STARTCHAR bracketright
ENCODING 93
SWIDTH 385 0
DWIDTH 5 0
BBX 6 12 0 -3
BITMAP
3C
08
18
18
18
10
10
30
30
30
20
E0
ENDCHAR

STARTCHAR asciicircum
ENCODING 94
SWIDTH 583 0
DWIDTH 7 0
BBX 5 4 1 5
BITMAP
20
50
50
88
ENDCHAR

STARTCHAR underscore
ENCODING 95
SWIDTH 500 0
DWIDTH 6 0
BBX 6 1 0 -3
BITMAP
FC
ENDCHAR

STARTCHAR quoteleft
ENCODING 96
SWIDTH 333 0
DWIDTH 4 0
BBX 3 4 2 5
BITMAP
60
40
C0
C0
ENDCHAR

STARTCHAR a
ENCODING 97
SWIDTH 573 0
DWIDTH 7 0
BBX 6 6 1 0
BITMAP
78
0C
7C
CC
D8
FC
ENDCHAR

STARTCHAR b
ENCODING 98
SWIDTH 604 0
DWIDTH 7 0
BBX 7 9 0 0
BITMAP
30
70
30
3E
36
66
66
66
DC
ENDCHAR

STARTCHAR c
ENCODING 99
SWIDTH 531 0
DWIDTH 6 0
BBX 6 6 1 0
BITMAP
3C
4C
C0
C0
C8
70
ENDCHAR

STARTCHAR d
ENCODING 100
SWIDTH 604 0
DWIDTH 7 0
BBX 7 9 1 0
BITMAP
0E
0E
06
74
4C
CC
CC
DC
7C
ENDCHAR

STARTCHAR e
ENCODING 101
SWIDTH 552 0
DWIDTH 7 0
BBX 6 6 1 0
BITMAP
38
4C
FC
C0
C8
70
ENDCHAR

STARTCHAR f
ENCODING 102
SWIDTH 333 0
DWIDTH 4 0
BBX 6 9 0 0
BITMAP
1C
30
30
70
20
60
60
60
E0
ENDCHAR

STARTCHAR g
ENCODING 103
SWIDTH 604 0
DWIDTH 7 0
BBX 8 9 0 -3
BITMAP
3B
66
66
66
6C
3C
0C
88
F8
ENDCHAR

STARTCHAR h
ENCODING 104
SWIDTH 604 0
DWIDTH 7 0
BBX 7 9 0 0
BITMAP
70
30
30
3C
3E
66
64
6C
EE
ENDCHAR

STARTCHAR i
ENCODING 105
SWIDTH 333 0
DWIDTH 4 0
BBX 4 9 0 0
BITMAP
30
30
00
70
20
60
60
60
E0
ENDCHAR

STARTCHAR j
ENCODING 106
SWIDTH 323 0
DWIDTH 4 0
BBX 5 12 0 -3
BITMAP
18
18
00
38
10
10
30
30
30
20
60
C0
ENDCHAR

STARTCHAR k
ENCODING 107
SWIDTH 573 0
DWIDTH 7 0
BBX 7 9 0 0
BITMAP
30
70
30
3E
24
68
78
6C
EE
ENDCHAR

STARTCHAR l
ENCODING 108
SWIDTH 333 0
DWIDTH 4 0
BBX 4 9 0 0
BITMAP
70
30
30
30
20
60
60
60
E0
ENDCHAR

STARTCHAR m
ENCODING 109
SWIDTH 969 0
DWIDTH 12 0
BBX 12 6 0 0
BITMAP
7EE0
3760
2660
6660
6660
F770
ENDCHAR

STARTCHAR n
ENCODING 110
SWIDTH 604 0
DWIDTH 7 0
BBX 7 6 0 0
BITMAP
7C
7E
26
64
6C
EE
ENDCHAR

STARTCHAR o
ENCODING 111
SWIDTH 573 0
DWIDTH 7 0
BBX 6 6 1 0
BITMAP
38
4C
CC
CC
D8
70
ENDCHAR

STARTCHAR p
ENCODING 112
SWIDTH 604 0
DWIDTH 7 0
BBX 8 9 0 -3
BITMAP
3E
33
33
33
36
2C
60
60
F0
ENDCHAR

STARTCHAR q
ENCODING 113
SWIDTH 604 0
DWIDTH 7 0
BBX 7 9 1 -3
BITMAP
76
4C
CC
CC
CC
78
18
18
3C
ENDCHAR

STARTCHAR r
ENCODING 114
SWIDTH 417 0
DWIDTH 5 0
BBX 6 6 0 0
BITMAP
7C
30
60
60
60
F0
ENDCHAR

STARTCHAR s
ENCODING 115
SWIDTH 490 0
DWIDTH 6 0
BBX 6 6 0 0
BITMAP
3C
6C
70
18
C8
F8
ENDCHAR

STARTCHAR t
ENCODING 116
SWIDTH 333 0
DWIDTH 4 0
BBX 4 8 1 0
BITMAP
20
60
F0
40
C0
C0
C0
E0
ENDCHAR

STARTCHAR u
ENCODING 117
SWIDTH 604 0
DWIDTH 7 0
BBX 6 6 1 0
BITMAP
FC
4C
CC
D8
FC
FC
ENDCHAR

STARTCHAR v
ENCODING 118
SWIDTH 510 0
DWIDTH 6 0
BBX 7 6 0 0
BITMAP
EE
48
48
70
70
60
ENDCHAR

STARTCHAR w
ENCODING 119
SWIDTH 760 0
DWIDTH 9 0
BBX 10 6 0 0
BITMAP
EDC0
4D00
7500
7700
6600
6600
ENDCHAR

STARTCHAR x
ENCODING 120
SWIDTH 500 0
DWIDTH 6 0
BBX 7 6 0 0
BITMAP
6E
3C
38
38
38
CC
ENDCHAR

STARTCHAR y
ENCODING 121
SWIDTH 563 0
DWIDTH 7 0
BBX 7 9 0 -3
BITMAP
FE
6C
68
68
30
30
20
60
C0
ENDCHAR

STARTCHAR z
ENCODING 122
SWIDTH 479 0
DWIDTH 6 0
BBX 6 6 0 0
BITMAP
3C
48
10
20
48
F8
ENDCHAR

STARTCHAR braceleft
ENCODING 123
SWIDTH 385 0
DWIDTH 5 0
BBX 5 12 1 -3
BITMAP
18
10
30
20
20
20
40
E0
40
40
40
60
ENDCHAR

STARTCHAR bar
ENCODING 124
SWIDTH 611 0
DWIDTH 8 0
BBX 4 12 2 -3
BITMAP
10
30
20
20
20
20
60
40
40
40
C0
C0
ENDCHAR

STARTCHAR braceright
ENCODING 125
SWIDTH 385 0
DWIDTH 5 0
BBX 5 12 0 -3
BITMAP
38
18
10
10
18
10
10
20
20
20
20
C0
ENDCHAR

STARTCHAR asciitilde
ENCODING 126
SWIDTH 583 0
DWIDTH 7 0
BBX 6 2 1 5
BITMAP
E4
9C
ENDCHAR

STARTCHAR exclamdown
ENCODING 161
SWIDTH 333 0
DWIDTH 4 0
BBX 4 9 0 -3
BITMAP
30
60
00
40
40
40
40
C0
C0
ENDCHAR

STARTCHAR cent
ENCODING 162
SWIDTH 531 0
DWIDTH 6 0
BBX 6 10 1 -2
BITMAP
08
08
3C
5C
D0
E0
E8
70
40
40
ENDCHAR

STARTCHAR sterling
ENCODING 163
SWIDTH 510 0
DWIDTH 6 0
BBX 6 9 1 0
BITMAP
1C
24
20
20
F8
20
E4
A8
D8
ENDCHAR

STARTCHAR currency
ENCODING 164
SWIDTH 667 0
DWIDTH 8 0
BBX 5 6 2 1
BITMAP
F8
D8
88
88
D8
F8
ENDCHAR

STARTCHAR yen
ENCODING 165
SWIDTH 625 0
DWIDTH 8 0
BBX 9 9 0 0
BITMAP
7780
2300
FF00
3C00
FF00
1800
1800
3000
7800
ENDCHAR

STARTCHAR brokenbar
ENCODING 166
SWIDTH 611 0
DWIDTH 8 0
BBX 4 12 2 -3
BITMAP
10
30
20
20
20
20
00
00
40
40
40
C0
ENDCHAR

STARTCHAR section
ENCODING 167
SWIDTH 510 0
DWIDTH 6 0
BBX 6 12 0 -3
BITMAP
3C
24
60
30
58
CC
C4
68
30
18
D8
70
ENDCHAR

STARTCHAR dieresis
ENCODING 168
SWIDTH 333 0
DWIDTH 4 0
BBX 5 2 1 7
BITMAP
D8
D8
ENDCHAR

STARTCHAR copyright
ENCODING 169
SWIDTH 740 0
DWIDTH 9 0
BBX 9 9 0 0
BITMAP
3E00
6300
D980
A480
A080
A480
D980
6300
3E00
ENDCHAR

STARTCHAR ordfeminine
ENCODING 170
SWIDTH 375 0
DWIDTH 5 0
BBX 4 4 1 5
BITMAP
70
D0
E0
F0
ENDCHAR

STARTCHAR guillemotleft
ENCODING 171
SWIDTH 531 0
DWIDTH 6 0
BBX 6 6 0 0
BITMAP
6C
24
24
34
68
D8
ENDCHAR

STARTCHAR logicalnot
ENCODING 172
SWIDTH 668 0
DWIDTH 8 0
BBX 7 4 1 2
BITMAP
FE
06
06
06
ENDCHAR

STARTCHAR hyphen
ENCODING 173
SWIDTH 344 0
DWIDTH 4 0
BBX 3 1 1 2
BITMAP
E0
ENDCHAR

STARTCHAR registered
ENCODING 174
SWIDTH 740 0
DWIDTH 9 0
BBX 10 9 0 0
BITMAP
1E00
6180
5E80
9240
9E40
9440
5280
6180
1E00
ENDCHAR

STARTCHAR macron
ENCODING 175
SWIDTH 333 0
DWIDTH 4 0
BBX 5 1 0 8
BITMAP
F8
ENDCHAR

STARTCHAR degree
ENCODING 176
SWIDTH 396 0
DWIDTH 5 0
BBX 4 4 1 5
BITMAP
60
90
90
60
ENDCHAR

STARTCHAR plusminus
ENCODING 177
SWIDTH 668 0
DWIDTH 8 0
BBX 7 9 0 0
BITMAP
10
10
10
FE
10
10
10
00
FE
ENDCHAR

STARTCHAR twosuperior
ENCODING 178
SWIDTH 333 0
DWIDTH 4 0
BBX 4 5 -5 4
BITMAP
60
F0
60
E0
E0
ENDCHAR

STARTCHAR threesuperior
ENCODING 179
SWIDTH 333 0
DWIDTH 4 0
BBX 3 5 -5 4
BITMAP
60
60
60
A0
E0
ENDCHAR

STARTCHAR acute
ENCODING 180
SWIDTH 333 0
DWIDTH 4 0
BBX 3 2 2 7
BITMAP
60
C0
ENDCHAR

STARTCHAR mu
ENCODING 181
SWIDTH 615 0
DWIDTH 7 0
BBX 7 9 0 -3
BITMAP
22
66
66
66
64
5C
C0
C0
C0
ENDCHAR

STARTCHAR paragraph
ENCODING 182
SWIDTH 552 0
DWIDTH 7 0
BBX 7 12 0 -3
BITMAP
7E
F4
E4
E4
28
28
28
28
48
48
50
50
ENDCHAR

STARTCHAR periodcentered
ENCODING 183
SWIDTH 333 0
DWIDTH 4 0
BBX 2 2 1 4
BITMAP
C0
C0
ENDCHAR

STARTCHAR cedilla
ENCODING 184
SWIDTH 333 0
DWIDTH 4 0
BBX 3 3 0 -3
BITMAP
20
60
E0
ENDCHAR

STARTCHAR onesuperior
ENCODING 185
SWIDTH 333 0
DWIDTH 4 0
BBX 3 5 -5 4
BITMAP
60
40
40
40
C0
ENDCHAR

STARTCHAR ordmasculine
ENCODING 186
SWIDTH 375 0
DWIDTH 5 0
BBX 4 4 1 5
BITMAP
60
90
B0
E0
ENDCHAR

STARTCHAR guillemotright
ENCODING 187
SWIDTH 531 0
DWIDTH 6 0
BBX 6 6 1 0
BITMAP
2C
48
D8
D0
58
48
ENDCHAR

STARTCHAR onequarter
ENCODING 188
SWIDTH 927 0
DWIDTH 11 0
BBX 10 9 1 0
BITMAP
6180
4300
4200
4400
C840
10C0
2140
41C0
C0C0
ENDCHAR

STARTCHAR onehalf
ENCODING 189
SWIDTH 927 0
DWIDTH 11 0
BBX 11 9 1 0
BITMAP
6180
4300
4200
4400
C8C0
11E0
20C0
41C0
C1C0
ENDCHAR

STARTCHAR threequarters
ENCODING 190
SWIDTH 927 0
DWIDTH 11 0
BBX 11 9 2 0
BITMAP
60C0
6180
6100
A200
E420
0860
10A0
20E0
6060
ENDCHAR

STARTCHAR questiondown
ENCODING 191
SWIDTH 542 0
DWIDTH 7 0
BBX 6 9 0 -3
BITMAP
18
18
00
10
70
C0
C0
CC
78
ENDCHAR

STARTCHAR Agrave
ENCODING 192
SWIDTH 646 0
DWIDTH 8 0
BBX 8 12 0 0
BITMAP
0C
02
00
1F
0A
0A
12
12
1E
23
23
E7
ENDCHAR

STARTCHAR Aacute
ENCODING 193
SWIDTH 646 0
DWIDTH 8 0
BBX 8 12 0 0
BITMAP
03
06
00
1F
0A
0A
12
12
1E
23
23
E7
ENDCHAR

STARTCHAR Acircumflex
ENCODING 194
SWIDTH 646 0
DWIDTH 8 0
BBX 8 12 0 0
BITMAP
0E
1B
00
1F
0A
0A
12
12
1E
23
23
E7
ENDCHAR

STARTCHAR Atilde
ENCODING 195
SWIDTH 646 0
DWIDTH 8 0
BBX 9 12 0 0
BITMAP
0C80
0B00
0000
1F00
0A00
0A00
1200
1200
1E00
2300
2300
E700
ENDCHAR

STARTCHAR Adieresis
ENCODING 196
SWIDTH 646 0
DWIDTH 8 0
BBX 8 12 0 0
BITMAP
1B
1B
00
1F
0A
0A
12
12
1E
23
23
E7
ENDCHAR

STARTCHAR Aring
ENCODING 197
SWIDTH 646 0
DWIDTH 8 0
BBX 8 13 0 0
BITMAP
0E
0A
0E
00
1F
0A
0A
12
12
1E
23
23
E7
ENDCHAR

STARTCHAR AE
ENCODING 198
SWIDTH 927 0
DWIDTH 11 0
BBX 13 9 0 0
BITMAP
0FF8
0D90
0B00
1B00
1FC0
3300
2700
6620
EFE0
ENDCHAR

STARTCHAR Ccedilla
ENCODING 199
SWIDTH 771 0
DWIDTH 9 0
BBX 9 12 1 -3
BITMAP
1E80
3180
6000
C000
C000
C000
C000
6300
3E00
1000
3000
7000
ENDCHAR

STARTCHAR Egrave
ENCODING 200
SWIDTH 635 0
DWIDTH 8 0
BBX 9 12 0 0
BITMAP
1800
0400
0000
3F80
3100
3000
3000
3C00
3000
6000
6200
FE00
ENDCHAR

STARTCHAR Eacute
ENCODING 201
SWIDTH 635 0
DWIDTH 8 0
BBX 9 12 0 0
BITMAP
0600
0C00
0000
3F80
3100
3000
3000
3C00
3000
6000
6200
FE00
ENDCHAR

STARTCHAR Ecircumflex
ENCODING 202
SWIDTH 635 0
DWIDTH 8 0
BBX 9 12 0 0
BITMAP
1C00
3600
0000
3F80
3100
3000
3000
3C00
3000
6000
6200
FE00
ENDCHAR

STARTCHAR Edieresis
ENCODING 203
SWIDTH 635 0
DWIDTH 8 0
BBX 9 12 0 0
BITMAP
1B00
1B00
0000
3F80
3100
3000
3000
3C00
3000
6000
6200
FE00
ENDCHAR

STARTCHAR Igrave
ENCODING 204
SWIDTH 396 0
DWIDTH 5 0
BBX 6 12 0 0
BITMAP
30
08
00
7C
18
30
30
30
30
30
60
F8
ENDCHAR

STARTCHAR Iacute
ENCODING 205
SWIDTH 396 0
DWIDTH 5 0
BBX 6 12 0 0
BITMAP
0C
18
00
7C
18
30
30
30
30
30
60
F8
ENDCHAR

STARTCHAR Icircumflex
ENCODING 206
SWIDTH 396 0
DWIDTH 5 0
BBX 6 12 0 0
BITMAP
38
6C
00
7C
18
30
30
30
30
30
60
F8
ENDCHAR

STARTCHAR Idieresis
ENCODING 207
SWIDTH 396 0
DWIDTH 5 0
BBX 7 12 0 0
BITMAP
36
36
00
7C
18
30
30
30
30
30
60
F8
ENDCHAR

STARTCHAR Eth
ENCODING 208
SWIDTH 760 0
DWIDTH 9 0
BBX 9 9 0 0
BITMAP
3E00
3B80
3180
3180
7D80
3180
3380
6300
FE00
ENDCHAR

STARTCHAR Ntilde
ENCODING 209
SWIDTH 792 0
DWIDTH 10 0
BBX 10 12 0 0
BITMAP
0C80
0B00
0000
39C0
2880
2C80
2C80
2500
2700
2700
4700
E300
ENDCHAR

STARTCHAR Ograve
ENCODING 210
SWIDTH 823 0
DWIDTH 10 0
BBX 9 12 1 0
BITMAP
0C00
0200
0000
1E00
3300
6180
E180
C180
C380
C300
6600
3C00
ENDCHAR

STARTCHAR Oacute
ENCODING 211
SWIDTH 823 0
DWIDTH 10 0
BBX 9 12 1 0
BITMAP
0600
0C00
0000
1E00
3300
6180
E180
C180
C380
C300
6600
3C00
ENDCHAR

STARTCHAR Ocircumflex
ENCODING 212
SWIDTH 823 0
DWIDTH 10 0
BBX 9 12 1 0
BITMAP
0E00
1B00
0000
1E00
3300
6180
E180
C180
C380
C300
6600
3C00
ENDCHAR

STARTCHAR Otilde
ENCODING 213
SWIDTH 823 0
DWIDTH 10 0
BBX 9 12 1 0
BITMAP
1900
1600
0000
1E00
3300
6180
E180
C180
C380
C300
6600
3C00
ENDCHAR

STARTCHAR Odieresis
ENCODING 214
SWIDTH 823 0
DWIDTH 10 0
BBX 9 12 1 0
BITMAP
1B00
1B00
0000
1E00
3300
6180
E180
C180
C380
C300
6600
3C00
ENDCHAR

STARTCHAR multiply
ENCODING 215
SWIDTH 667 0
DWIDTH 8 0
BBX 6 6 1 1
BITMAP
C4
6C
38
38
EC
84
ENDCHAR

STARTCHAR Oslash
ENCODING 216
SWIDTH 823 0
DWIDTH 10 0
BBX 9 9 1 0
BITMAP
1E80
3300
6380
E780
CD80
CB80
D300
6600
7C00
ENDCHAR

STARTCHAR Ugrave
ENCODING 217
SWIDTH 708 0
DWIDTH 8 0
BBX 8 12 1 0
BITMAP
18
04
00
F7
62
62
E4
C4
C4
C4
C8
70
ENDCHAR

STARTCHAR Uacute
ENCODING 218
SWIDTH 708 0
DWIDTH 8 0
BBX 8 12 1 0
BITMAP
0C
18
00
F7
62
62
E4
C4
C4
C4
C8
70
ENDCHAR

STARTCHAR Ucircumflex
ENCODING 219
SWIDTH 708 0
DWIDTH 8 0
BBX 8 12 1 0
BITMAP
1C
36
00
F7
62
62
E4
C4
C4
C4
C8
70
ENDCHAR

STARTCHAR Udieresis
ENCODING 220
SWIDTH 708 0
DWIDTH 8 0
BBX 8 12 1 0
BITMAP
36
36
00
F7
62
62
E4
C4
C4
C4
C8
70
ENDCHAR

STARTCHAR Yacute
ENCODING 221
SWIDTH 625 0
DWIDTH 8 0
BBX 8 12 1 0
BITMAP
0C
18
00
F7
66
64
28
38
30
30
30
78
ENDCHAR

STARTCHAR Thorn
ENCODING 222
SWIDTH 646 0
DWIDTH 8 0
BBX 8 9 0 0
BITMAP
7C
3E
33
33
33
36
7E
60
F0
ENDCHAR

STARTCHAR germandbls
ENCODING 223
SWIDTH 615 0
DWIDTH 7 0
BBX 8 9 0 0
BITMAP
1E
33
33
32
2E
66
66
66
EC
ENDCHAR

STARTCHAR agrave
ENCODING 224
SWIDTH 573 0
DWIDTH 7 0
BBX 6 9 1 0
BITMAP
30
08
00
78
0C
7C
CC
D8
FC
ENDCHAR

STARTCHAR aacute
ENCODING 225
SWIDTH 573 0
DWIDTH 7 0
BBX 6 9 1 0
BITMAP
0C
18
00
78
0C
7C
CC
D8
FC
ENDCHAR

STARTCHAR acircumflex
ENCODING 226
SWIDTH 573 0
DWIDTH 7 0
BBX 6 9 1 0
BITMAP
38
6C
00
78
0C
7C
CC
D8
FC
ENDCHAR

STARTCHAR atilde
ENCODING 227
SWIDTH 573 0
DWIDTH 7 0
BBX 7 9 1 0
BITMAP
32
2C
00
78
0C
7C
CC
D8
FC
ENDCHAR

STARTCHAR adieresis
ENCODING 228
SWIDTH 573 0
DWIDTH 7 0
BBX 7 9 1 0
BITMAP
36
36
00
78
0C
7C
CC
D8
FC
ENDCHAR

STARTCHAR aring
ENCODING 229
SWIDTH 573 0
DWIDTH 7 0
BBX 6 10 1 0
BITMAP
1C
14
1C
00
78
0C
7C
CC
D8
FC
ENDCHAR

STARTCHAR ae
ENCODING 230
SWIDTH 844 0
DWIDTH 10 0
BBX 10 6 0 0
BITMAP
7B80
0C80
7FC0
C800
DD80
E700
ENDCHAR

STARTCHAR ccedilla
ENCODING 231
SWIDTH 531 0
DWIDTH 6 0
BBX 6 9 1 -3
BITMAP
3C
4C
C0
C0
C8
70
20
60
E0
ENDCHAR

STARTCHAR egrave
ENCODING 232
SWIDTH 552 0
DWIDTH 7 0
BBX 6 9 1 0
BITMAP
30
08
00
38
4C
FC
C0
C8
70
ENDCHAR

STARTCHAR eacute
ENCODING 233
SWIDTH 552 0
DWIDTH 7 0
BBX 6 9 1 0
BITMAP
18
30
00
38
4C
FC
C0
C8
70
ENDCHAR

STARTCHAR ecircumflex
ENCODING 234
SWIDTH 552 0
DWIDTH 7 0
BBX 6 9 1 0
BITMAP
38
6C
00
38
4C
FC
C0
C8
70
ENDCHAR

STARTCHAR edieresis
ENCODING 235
SWIDTH 552 0
DWIDTH 7 0
BBX 6 9 1 0
BITMAP
6C
6C
00
38
4C
FC
C0
C8
70
ENDCHAR

STARTCHAR igrave
ENCODING 236
SWIDTH 333 0
DWIDTH 4 0
BBX 4 9 0 0
BITMAP
60
10
00
70
20
60
60
60
E0
ENDCHAR

STARTCHAR iacute
ENCODING 237
SWIDTH 333 0
DWIDTH 4 0
BBX 5 9 0 0
BITMAP
18
30
00
70
20
60
60
60
E0
ENDCHAR

STARTCHAR icircumflex
ENCODING 238
SWIDTH 333 0
DWIDTH 4 0
BBX 5 9 0 0
BITMAP
70
D8
00
70
20
60
60
60
E0
ENDCHAR

STARTCHAR idieresis
ENCODING 239
SWIDTH 333 0
DWIDTH 4 0
BBX 5 9 0 0
BITMAP
D8
D8
00
70
20
60
60
60
E0
ENDCHAR

STARTCHAR eth
ENCODING 240
SWIDTH 635 0
DWIDTH 8 0
BBX 6 9 1 0
BITMAP
38
28
0C
3C
4C
CC
CC
C8
70
ENDCHAR

STARTCHAR ntilde
ENCODING 241
SWIDTH 604 0
DWIDTH 7 0
BBX 7 9 0 0
BITMAP
32
2C
00
7C
7E
26
64
6C
EE
ENDCHAR

STARTCHAR ograve
ENCODING 242
SWIDTH 573 0
DWIDTH 7 0
BBX 6 9 1 0
BITMAP
30
08
00
38
4C
CC
CC
D8
70
ENDCHAR

STARTCHAR oacute
ENCODING 243
SWIDTH 573 0
DWIDTH 7 0
BBX 6 9 1 0
BITMAP
0C
18
00
38
4C
CC
CC
D8
70
ENDCHAR

STARTCHAR ocircumflex
ENCODING 244
SWIDTH 573 0
DWIDTH 7 0
BBX 6 9 1 0
BITMAP
38
6C
00
38
4C
CC
CC
D8
70
ENDCHAR

STARTCHAR otilde
ENCODING 245
SWIDTH 573 0
DWIDTH 7 0
BBX 7 9 1 0
BITMAP
32
2C
00
38
4C
CC
CC
D8
70
ENDCHAR

STARTCHAR odieresis
ENCODING 246
SWIDTH 573 0
DWIDTH 7 0
BBX 6 9 1 0
BITMAP
6C
6C
00
38
4C
CC
CC
D8
70
ENDCHAR

STARTCHAR divide
ENCODING 247
SWIDTH 668 0
DWIDTH 8 0
BBX 7 7 1 1
BITMAP
30
10
00
FE
00
30
10
ENDCHAR

STARTCHAR oslash
ENCODING 248
SWIDTH 573 0
DWIDTH 7 0
BBX 6 6 1 0
BITMAP
3C
4C
DC
EC
D8
F0
ENDCHAR

STARTCHAR ugrave
ENCODING 249
SWIDTH 604 0
DWIDTH 7 0
BBX 6 9 1 0
BITMAP
30
08
00
FC
4C
CC
D8
FC
FC
ENDCHAR

STARTCHAR uacute
ENCODING 250
SWIDTH 604 0
DWIDTH 7 0
BBX 6 9 1 0
BITMAP
0C
18
00
FC
4C
CC
D8
FC
FC
ENDCHAR

STARTCHAR ucircumflex
ENCODING 251
SWIDTH 604 0
DWIDTH 7 0
BBX 6 9 1 0
BITMAP
38
6C
00
FC
4C
CC
D8
FC
FC
ENDCHAR

STARTCHAR udieresis
ENCODING 252
SWIDTH 604 0
DWIDTH 7 0
BBX 6 9 1 0
BITMAP
6C
6C
00
FC
4C
CC
D8
FC
FC
ENDCHAR

STARTCHAR yacute
ENCODING 253
SWIDTH 563 0
DWIDTH 7 0
BBX 7 12 0 -3
BITMAP
0C
18
00
FE
6C
68
68
30
30
20
60
C0
ENDCHAR

STARTCHAR thorn
ENCODING 254
SWIDTH 604 0
DWIDTH 7 0
BBX 8 12 0 -3
BITMAP
38
18
18
1E
33
33
33
36
2C
60
60
F0
ENDCHAR

STARTCHAR ydieresis
ENCODING 255
SWIDTH 563 0
DWIDTH 7 0
BBX 7 12 0 -3
BITMAP
36
36
00
FE
6C
68
68
30
30
20
60
C0
ENDCHAR
ENDFONT
